Coordinates
version=1
nRows=19
nColumns=34
inDegrees=yes

Units are S.I. units (second, meters, Newtons, ...)
Angles are in degrees.

endheader
time	pelvis_tilt	pelvis_list	pelvis_rotation	pelvis_tx	pelvis_ty	pelvis_tz	hip_flexion_r	hip_adduction_r	hip_rotation_r	knee_angle_r	ankle_angle_r	subtalar_angle_r	mtp_angle_r	hip_flexion_l	hip_adduction_l	hip_rotation_l	knee_angle_l	socket_flexion	socket_adduction	socket_rotation	socket_tx	socket_ty	socket_tz	pros_ankle_rx	pros_ankle_ry	pros_ankle_rz	pros_ankle_tx	pros_ankle_ty	pros_ankle_tz	foot_flex	lumbar_extension	lumbar_bending	lumbar_rotation
      0.90416667	      0.72204012	     -6.59857805	      2.72081252	      0.46481805	      1.04578046	      0.36290498	     10.38500636	      9.87328547	     -9.06811865	    -21.28944071	      8.82626953	     15.05864757	     14.58291300	     15.53468296	    -12.15300798	     -2.07497663	    -36.61641273	     27.43485319	     -2.17166780	     -5.55657414	      0.10631539	      0.00907233	      0.00778510	      0.00000000	      0.00000000	      0.00000000	      0.00000000	      0.00000000	      0.00000000	     -1.47146605	    -19.98509411	      2.54478556	     -0.56371361
      0.90833333	      0.70935122	     -6.52838109	      2.68462521	      0.46982627	      1.04692068	      0.36308955	      9.91436374	      9.83436785	     -9.04156514	    -20.96976445	      8.79031237	     15.24322196	     14.67062620	     15.99498508	    -12.02961693	     -1.88926620	    -36.39330246	     27.20079091	     -1.96654020	     -5.28127093	      0.10548169	      0.00862659	      0.00699303	      0.00000000	      0.00000000	      0.00000000	      0.00000000	      0.00000000	      0.00000000	     -1.48005819	    -19.94974062	      2.38994253	     -0.50074536
      0.91250000	      0.70231668	     -6.47524112	      2.61575535	      0.47486356	      1.04806296	      0.36322358	      9.43370589	      9.79190797	     -9.05023894	    -20.64219529	      8.68945116	     15.44319070	     14.77512651	     16.43379143	    -11.93628246	     -1.72858625	    -36.15724447	     26.94658559	     -1.77637932	     -5.02197155	      0.10466212	      0.00823925	      0.00606896	      0.00000000	      0.00000000	      0.00000000	      0.00000000	      0.00000000	      0.00000000	     -1.48424379	    -19.91807890	      2.29248539	     -0.41859614
      0.91666667	      0.66182833	     -6.38696770	      2.50135996	      0.47978085	      1.04912455	      0.36343522	      9.05728350	      9.71070496	     -9.02214393	    -20.45463857	      8.66737093	     15.54594492	     14.81790268	     16.86181306	    -11.80746060	     -1.60577753	    -35.87159668	     26.67767687	     -1.57579657	     -4.77940816	      0.10365708	      0.00770071	      0.00514698	      0.00000000	      0.00000000	      0.00000000	      0.00000000	      0.00000000	      0.00000000	     -1.47959545	    -19.95575044	      2.26034035	     -0.36329176
      0.92083333	      0.63051585	     -6.32504694	      2.44922901	      0.48475259	      1.05022607	      0.36359043	      8.59786868	      9.67498829	     -8.97523760	    -20.11138043	      8.60234262	     15.72655636	     14.87798036	     17.30959301	    -11.69389904	     -1.43839606	    -35.57875767	     26.39141191	     -1.38887513	     -4.50129822	      0.10273493	      0.00732561	      0.00423803	      0.00000000	      0.00000000	      0.00000000	      0.00000000	      0.00000000	      0.00000000	     -1.49640970	    -19.92438599	      2.10884199	     -0.27628476
      0.92500000	      0.92748778	     -6.33624763	      2.41651120	      0.49000078	      1.05189323	      0.36370026	      7.65771235	      9.70370521	     -9.11263791	    -19.49063076	      8.04083881	     16.23302082	     16.48966965	     17.28256434	    -11.67647080	     -1.42228134	    -35.46457231	     25.74238245	     -1.25210296	     -4.14685022	      0.10062987	      0.00594543	      0.00363749	      0.00000000	      0.00000000	      0.00000000	      0.00000000	      0.00000000	      0.00000000	     -1.56357636	    -20.16284844	      2.03214301	     -0.05663299
      0.92916667	      0.86219249	     -6.25421170	      2.28855749	      0.49483935	      1.05288789	      0.36391448	      7.32350439	      9.62618877	     -9.06836600	    -19.32453894	      8.04020674	     16.30632688	     16.51347506	     17.72854430	    -11.53883206	     -1.30429865	    -35.13962858	     25.43456329	     -1.07491069	     -3.93508702	      0.09950172	      0.00566452	      0.00284588	      0.00000000	      0.00000000	      0.00000000	      0.00000000	      0.00000000	      0.00000000	     -1.49112216	    -20.18803379	      1.97549228	     -0.00659522
      0.93333333	      0.81117383	     -6.20603183	      2.17593937	      0.49963631	      1.05388202	      0.36414779	      6.95668390	      9.58984483	     -9.01904353	    -19.11167580	      8.01102463	     16.41075833	     16.53377469	     18.16485904	    -11.41639200	     -1.17669406	    -34.79159315	     25.10347757	     -0.93307469	     -3.73586142	      0.09842425	      0.00532665	      0.00237966	      0.00000000	      0.00000000	      0.00000000	      0.00000000	      0.00000000	      0.00000000	     -1.48991503	    -20.16942712	      1.87138796	      0.05671829
      0.93750000	      0.73193141	     -6.15086865	      2.08015672	      0.50457229	      1.05487647	      0.36433365	      6.55811220	      9.55335600	     -8.95419039	    -18.78437791	      7.94117259	     16.56268588	     16.55652320	     18.60099989	    -11.28923440	     -1.04380033	    -34.41175919	     24.73996609	     -0.78203322	     -3.51119102	      0.09722619	      0.00502260	      0.00175074	      0.00000000	      0.00000000	      0.00000000	      0.00000000	      0.00000000	      0.00000000	     -1.49546973	    -20.11803092	      1.75237093	      0.15191492
      0.94166667	      0.66263034	     -6.11423999	      1.98760352	      0.50953042	      1.05588534	      0.36452688	      6.13283128	      9.53885479	     -8.88298014	    -18.41950186	      7.81016767	     16.74869604	     16.58379680	     19.00454646	    -11.18239956	     -0.92402926	    -34.01139913	     24.35339509	     -0.65855203	     -3.30693498	      0.09592279	      0.00465403	      0.00119905	      0.00000000	      0.00000000	      0.00000000	      0.00000000	      0.00000000	      0.00000000	     -1.49867512	    -20.02151617	      1.62919608	      0.27282383
      0.94583333	      0.59804303	     -6.08829269	      1.87703351	      0.51447467	      1.05687645	      0.36472418	      5.70702482	      9.53176330	     -8.81216987	    -18.05899598	      7.63475506	     16.94431688	     16.61738274	     19.37545430	    -11.08882556	     -0.82992461	    -33.58648480	     23.94180569	     -0.54741464	     -3.12425017	      0.09451834	      0.00421365	      0.00069902	      0.00000000	      0.00000000	      0.00000000	      0.00000000	      0.00000000	      0.00000000	     -1.48920311	    -19.91846113	      1.53764878	      0.41243033
      0.95000000	      0.60994582	     -6.10039893	      1.72471512	      0.51961199	      1.05800650	      0.36497932	      5.12247618	      9.58191202	     -8.69208098	    -17.55487406	      7.20698718	     17.25830759	     16.72189306	     19.60728322	    -11.04608040	     -0.78527068	    -33.14089805	     23.47866775	     -0.44464981	     -2.97997312	      0.09303707	      0.00369528	      0.00039209	      0.00000000	      0.00000000	      0.00000000	      0.00000000	      0.00000000	      0.00000000	     -1.48093401	    -19.66947849	      1.41288572	      0.68458980
      0.95416667	      0.54195516	     -6.08092903	      1.57030086	      0.52426119	      1.05884793	      0.36515781	      4.83723117	      9.54894715	     -8.66700831	    -17.44905026	      7.17559835	     17.31520606	     16.75073870	     19.98242896	    -10.94924690	     -0.70928363	    -32.69303622	     23.05446981	     -0.35362376	     -2.82425999	      0.09168148	      0.00334390	      0.00005115	      0.00000000	      0.00000000	      0.00000000	      0.00000000	      0.00000000	      0.00000000	     -1.44239213	    -19.76569617	      1.41320857	      0.74980046
      0.95833333	      0.81181807	     -6.02341768	      1.33026750	      0.52947513	      1.06056650	      0.36569092	      3.85470421	      9.57207694	     -8.30582738	    -16.70785687	      6.55086392	     17.39943128	     17.85458676	     19.59114080	    -10.96757346	     -0.77272689	    -32.21362820	     22.25208822	     -0.13677962	     -2.71221750	      0.08813211	      0.00123485	     -0.00135475	      0.00000000	      0.00000000	      0.00000000	      0.00000000	      0.00000000	      0.00000000	     -1.43121125	    -19.98843935	      1.16730272	      1.26949500
      0.96250000	      0.72908094	     -5.99402767	      1.21324845	      0.53427867	      1.06139815	      0.36581724	      3.48942839	      9.54409639	     -8.22371768	    -16.41752762	      6.48254315	     17.55486889	     17.91527060	     19.97954346	    -10.83496989	     -0.66955062	    -31.75265120	     21.78936969	     -0.07512947	     -2.58301579	      0.08674914	      0.00114297	     -0.00149133	      0.00000000	      0.00000000	      0.00000000	      0.00000000	      0.00000000	      0.00000000	     -1.43663833	    -19.88564026	      1.10141985	      1.34974385
      0.96666667	      0.63439866	     -5.98224995	      1.05912059	      0.53922293	      1.06225504	      0.36598933	      3.10546132	      9.53503227	     -8.12261000	    -16.07087392	      6.25091339	     17.76681524	     18.00701211	     20.25577891	    -10.72393069	     -0.60714400	    -31.22995535	     21.25497030	     -0.02669432	     -2.49320573	      0.08478265	      0.00054741	     -0.00154909	      0.00000000	      0.00000000	      0.00000000	      0.00000000	      0.00000000	      0.00000000	     -1.39602278	    -19.72532162	      1.01723229	      1.50344127
      0.97083333	      0.57175816	     -5.96390923	      0.88478115	      0.54410601	      1.06315423	      0.36622395	      2.70212159	      9.51938427	     -8.00462382	    -15.73887194	      6.01233430	     17.95350061	     18.14922849	     20.46252795	    -10.63833303	     -0.56275134	    -30.68866431	     20.68910565	      0.04926306	     -2.43304806	      0.08263936	     -0.00007958	     -0.00182847	      0.00000000	      0.00000000	      0.00000000	      0.00000000	      0.00000000	      0.00000000	     -1.35259911	    -19.63288722	      0.93725457	      1.70923877
      0.97500000	      0.49666557	     -5.94307426	      0.73165636	      0.54896928	      1.06393971	      0.36638094	      2.30916123	      9.49852747	     -7.88540879	    -15.41760861	      5.89660124	     18.10985210	     18.25144661	     20.71573290	    -10.52471745	     -0.48015221	    -30.14695863	     20.14284241	      0.10063306	     -2.35810797	      0.08072870	     -0.00051524	     -0.00196782	      0.00000000	      0.00000000	      0.00000000	      0.00000000	      0.00000000	      0.00000000	     -1.34084854	    -19.55273831	      0.86437677	      1.86233991
      0.97916667	      0.41281827	     -5.96144356	      0.58170885	      0.55350781	      1.06458673	      0.36652047	      2.06623740	      9.49514562	     -7.87508726	    -15.33424223	      5.87565449	     18.15797573	     18.27238275	     21.06869954	    -10.44333496	     -0.41221769	    -29.62752094	     19.64832175	      0.11070490	     -2.26731092	      0.07923009	     -0.00051486	     -0.00187419	      0.00000000	      0.00000000	      0.00000000	      0.00000000	      0.00000000	      0.00000000	     -1.27525259	    -19.63277491	      0.86199472	      1.91246846
